<svg width="18" height="18" viewBox="0 0 18 18" fill="none" xmlns="http://www.w3.org/2000/svg">
<path d="M8.99131 16.7765C8.77247 16.7765 8.55363 16.6931 8.38665 16.5263L1.4628 9.60462C1.30254 9.44432 1.2124 9.22695 1.2124 9.00026C1.2124 8.77357 1.30254 8.55619 1.4628 8.3959L8.38665 1.47441C8.55363 1.3075 8.77247 1.22412 8.99131 1.22412C9.21008 1.22412 9.42892 1.3075 9.5959 1.47441L16.5198 8.3959C16.68 8.55619 16.7701 8.77357 16.7701 9.00026C16.7701 9.22695 16.68 9.44432 16.5198 9.60462L9.5959 16.5263C9.42892 16.6931 9.21008 16.7765 8.99131 16.7765Z" fill="#E28883"/>
<path opacity="0.1" d="M3.78117 9.60469C3.62092 9.4444 3.53078 9.22702 3.53078 9.00033C3.53078 8.77364 3.62092 8.55627 3.78117 8.39597L10.1505 2.0288L9.5959 1.47441C9.42892 1.3075 9.21008 1.22412 8.99131 1.22412C8.77247 1.22412 8.55363 1.3075 8.38665 1.47441L1.4628 8.3959C1.30254 8.55619 1.2124 8.77357 1.2124 9.00026C1.2124 9.22695 1.30254 9.44433 1.4628 9.60462L8.38665 16.5263C8.55363 16.6932 8.77247 16.7765 8.99131 16.7765C9.21008 16.7765 9.42892 16.6931 9.5959 16.5263L10.1505 15.9719L3.78117 9.60469Z" fill="black"/>
<path d="M6.02562 9.30262C5.95776 9.23466 5.91531 9.14609 5.90392 9.05176H1.2146C1.22719 9.25968 1.31443 9.45666 1.46252 9.60473L8.38637 16.5264C8.54026 16.6802 8.7383 16.7622 8.93959 16.7742L8.93966 12.0849C8.84797 12.0739 8.75903 12.035 8.6887 11.9647L6.02562 9.30262Z" fill="#E8A09C"/>
<path d="M16.5198 8.39616L9.59594 1.47459C9.4364 1.31515 9.22937 1.23277 9.02051 1.22559V5.91382C9.11992 5.92057 9.21763 5.96024 9.29369 6.03623L11.9567 8.69834C12.0299 8.77155 12.0734 8.86873 12.0804 8.97144H16.7688C16.7613 8.75542 16.6732 8.54956 16.5198 8.39616Z" fill="#E8A09C"/>
<path d="M8.99121 12.0901C8.88183 12.0901 8.77237 12.0484 8.68881 11.965L6.0258 9.30286C5.94563 9.22267 5.90063 9.11398 5.90063 9.0006C5.90063 8.88723 5.94563 8.77861 6.0258 8.69842L8.68881 6.03631C8.77237 5.95293 8.88169 5.91113 8.99121 5.91113C9.10053 5.91113 9.20998 5.95286 9.29354 6.03631L11.9566 8.69842C12.0367 8.77854 12.0817 8.8873 12.0817 9.0006C12.0817 9.11398 12.0367 9.2226 11.9566 9.30286L9.29354 11.965C9.20998 12.0484 9.10053 12.0901 8.99121 12.0901Z" fill="#BF6060"/>
<path d="M17.3233 8.97178C17.3233 8.97164 17.3233 8.9715 17.3233 8.97136C17.3233 8.96191 17.3223 8.95273 17.3219 8.94335C17.3077 8.58736 17.1642 8.25447 16.9109 8.00106L15.1177 6.20831C14.9007 5.99143 14.5496 5.99207 14.3335 6.21023C14.1175 6.42831 14.1184 6.78103 14.3354 6.99798L15.7518 8.41406H12.4419C12.4132 8.37539 12.3824 8.33785 12.3477 8.30309L9.68453 5.64077C9.65022 5.60651 9.61321 5.57608 9.57486 5.54765V2.23917L13.0051 5.66821C13.2221 5.88523 13.5732 5.88438 13.7891 5.66629C14.0052 5.44813 14.0043 5.09548 13.7872 4.87853L9.98693 1.07957C9.73264 0.825368 9.39805 0.681848 9.04075 0.669479C9.03395 0.669266 9.02723 0.668413 9.02037 0.668413C9.02023 0.668413 9.02016 0.668413 9.02002 0.668413C9.01039 0.668271 9.00091 0.666992 8.99136 0.666992C8.61538 0.666992 8.26175 0.813497 7.99558 1.07949L1.07158 8.00106C0.804841 8.26784 0.657959 8.62276 0.657959 9.00029C0.657959 9.37782 0.804842 9.73267 1.07172 9.9996L7.99565 16.9213C8.24958 17.1749 8.5834 17.3184 8.93992 17.3312C8.94006 17.3312 8.94014 17.3312 8.94028 17.3312C8.95726 17.3318 8.97417 17.3337 8.99129 17.3337C9.36713 17.3337 9.72076 17.1872 9.987 16.9212L16.911 9.99952C17.1777 9.73274 17.3246 9.37782 17.3246 9.00029C17.3247 8.99084 17.3235 8.98138 17.3233 8.97178ZM8.46595 2.18102V5.5072C8.40602 5.54545 8.34941 5.58973 8.29791 5.64119L5.63482 8.30338C5.5768 8.36145 5.52791 8.426 5.48673 8.49474H2.15029L8.46595 2.18102ZM8.3855 15.7393L7.77851 15.1325L2.25302 9.60884H5.5572C5.5814 9.63955 5.60687 9.66948 5.63489 9.69749L8.29798 12.3597C8.32571 12.3875 8.35515 12.4126 8.38543 12.4365L8.3855 15.7393ZM8.99129 11.4811L6.50983 9.00036L8.99129 6.51966L11.4728 9.00036L8.99129 11.4811ZM9.49449 15.842L9.49456 12.507C9.56276 12.4659 9.62701 12.4173 9.68488 12.3596L12.348 9.69734C12.3998 9.64559 12.4443 9.58873 12.4827 9.52845H15.8103L9.49449 15.842Z" fill="black"/>
</svg>
