<svg width="16" height="16" viewBox="0 0 16 16" fill="none" xmlns="http://www.w3.org/2000/svg">
<g clip-path="url(#clip0_152_3449)">
<path d="M11.254 5.37915L8 14.7585L16 5.37915H11.254Z" fill="#FFE182"/>
<path d="M3.31034 1.24121L0 5.37915H4.74597L3.31034 1.24121Z" fill="#FFCD73"/>
<path d="M11.2542 5.37915H16.0001L12.6898 1.24121L11.2542 5.37915Z" fill="#FFCD73"/>
<path d="M11.2539 5.37915L7.99988 1.24121L4.74585 5.37915H11.2539Z" fill="#FFCD73"/>
<path d="M7.99971 1.24146H3.31006L4.74568 5.37939L7.99971 1.24146Z" fill="#FFAA64"/>
<path d="M12.6897 1.24146H8L11.254 5.37939L12.6897 1.24146Z" fill="#FFE182"/>
<path d="M4.74585 5.37915L7.99988 14.7585L11.2539 5.37915H4.74585Z" fill="#FFAA64"/>
<path d="M0 5.37915L8 14.7585L4.74597 5.37915H0Z" fill="#FF8C5A"/>
</g>
<defs>
<clipPath id="clip0_152_3449">
<rect width="16" height="16" fill="white"/>
</clipPath>
</defs>
</svg>
