<svg width="14" height="19" viewBox="0 0 14 19" fill="none" xmlns="http://www.w3.org/2000/svg">
<path d="M6.89153 18.3353C6.69759 18.3353 6.50383 18.2807 6.35205 18.1715L1.04864 14.3531C0.889595 14.2387 0.799561 14.0788 0.799561 13.9115V5.5659C0.799561 5.39696 0.891473 5.23566 1.05324 5.12102L6.35666 1.36313C6.50771 1.25604 6.69953 1.20264 6.89147 1.20264C7.08336 1.20264 7.27518 1.25614 7.4261 1.36313L12.7295 5.12102C12.8912 5.23566 12.9834 5.39696 12.9834 5.5659V13.9115C12.9834 14.0789 12.8931 14.2387 12.7341 14.3531L7.43077 18.1715C7.27918 18.2807 7.08529 18.3353 6.89153 18.3353Z" fill="#E5AE36"/>
<path d="M0.799561 13.9115L3.95342 13.1163V6.35263L0.799561 5.56592V13.9115Z" fill="#FDF276"/>
<path d="M9.82953 13.1255L6.8916 15.2408V18.336C7.08536 18.336 7.27925 18.2814 7.43084 18.1721L12.7343 14.3538C12.8933 14.2394 12.9836 14.0795 12.9836 13.9122L9.82953 13.1255Z" fill="#BF953E"/>
<path d="M6.89172 1.20312C6.69977 1.20312 6.50789 1.25662 6.3569 1.36362L1.05349 5.12151C0.891717 5.23615 0.799805 5.39745 0.799805 5.56638L3.95367 6.36169L6.89178 4.27983V1.20312H6.89172Z" fill="#BF953E"/>
<path d="M12.7301 5.12151L7.42672 1.36362C7.27573 1.25653 7.08397 1.20312 6.89209 1.20312V4.27988L9.83002 6.36173L12.9841 5.56643C12.984 5.39745 12.8917 5.23615 12.7301 5.12151Z" fill="#FFC753"/>
<path d="M0.799805 13.9122C0.799805 14.0795 0.889899 14.2394 1.04888 14.3538L6.3523 18.1721C6.50401 18.2813 6.69789 18.336 6.89178 18.336V15.2408L3.95367 13.1255L0.799805 13.9122Z" fill="#FFC753"/>
<path d="M3.95361 13.1248V6.36115L6.89172 4.2793L9.82965 6.36115V13.1248L6.89172 15.2401L3.95361 13.1248Z" fill="#FEFAC8"/>
<path opacity="0.1" d="M3.02309 14.3531C2.86405 14.2387 2.77395 14.0789 2.77395 13.9116V5.56594C2.77395 5.39701 2.86586 5.23571 3.02763 5.12107L6.89147 2.38318V1.20264C6.69953 1.20264 6.50764 1.25613 6.35666 1.36313L1.05324 5.12102C0.891473 5.23566 0.799561 5.39696 0.799561 5.5659V13.9115C0.799561 14.0788 0.889655 14.2387 1.04864 14.3531L6.35205 18.1715C6.50377 18.2806 6.69753 18.3353 6.89153 18.3353V17.1383L3.02309 14.3531Z" fill="black"/>
<path d="M9.82983 6.36122V13.1248L12.9839 13.9115V5.56592L9.82983 6.36122Z" fill="#FDF276"/>
<path d="M7.74605 1.08988C7.51242 0.9242 7.20905 0.833008 6.89169 0.833008C6.57433 0.833008 6.27091 0.924247 6.03728 1.08984L0.733801 4.84778C0.473998 5.03195 0.324951 5.29373 0.324951 5.56604V13.9117C0.324951 14.1812 0.471393 14.4411 0.72653 14.6247L6.03001 18.4431C6.26473 18.612 6.57088 18.7051 6.89169 18.7051C7.21269 18.7051 7.51872 18.612 7.75326 18.443L13.0566 14.6247C13.312 14.441 13.4585 14.1811 13.4585 13.9116V9.97992C13.4585 9.77574 13.2459 9.6102 12.9837 9.6102C12.7214 9.6102 12.5088 9.77574 12.5088 9.97992V13.4049L10.3045 12.8551V6.63015L12.5088 6.07432V8.59968C12.5088 8.80385 12.7214 8.9694 12.9837 8.9694C13.2459 8.9694 13.4585 8.80385 13.4585 8.59968V5.56599C13.4585 5.29392 13.3094 5.03214 13.0494 4.84768L7.74605 1.08988ZM6.41686 1.82051V4.11602L3.8378 5.94345L1.44856 5.34096L6.41686 1.82051ZM1.27455 6.07436L3.47875 6.6302V12.8551L1.27455 13.4049V6.07436ZM6.41686 17.7146L1.44905 14.1379L3.83465 13.5428L6.41686 15.4019V17.7146ZM12.3342 14.1378L7.36652 17.7144V15.4019L9.94855 13.5428L12.3342 14.1378ZM9.94547 5.9435L9.26318 5.46003C9.06936 5.32265 8.76902 5.33365 8.59241 5.48461C8.41591 5.63562 8.43009 5.86948 8.62397 6.0069L9.35479 6.52476V12.9633L6.89169 14.7367L4.42842 12.9633V6.52476L6.89169 4.77932L7.4216 5.15475C7.61554 5.29213 7.91588 5.28114 8.09237 5.13017C8.26887 4.97911 8.25469 4.74531 8.06081 4.60788L7.36664 4.11597V1.8206L12.3348 5.34091L9.94547 5.9435Z" fill="black"/>
</svg>
