<svg width="18" height="18" viewBox="0 0 18 18" fill="none" xmlns="http://www.w3.org/2000/svg">
<path d="M8.99121 16.7851C8.76061 16.7851 8.54175 16.6699 8.3949 16.4709L1.33148 6.90714C1.11502 6.61406 1.09493 6.19726 1.28202 5.87989L3.80288 1.60407C3.94588 1.36145 4.18868 1.21533 4.44847 1.21533H13.5338C13.7937 1.21533 14.0363 1.36145 14.1795 1.60407L16.7002 5.87989C16.8873 6.19726 16.8673 6.61406 16.6508 6.90714L9.5874 16.4708C9.44049 16.6699 9.22188 16.7851 8.99121 16.7851Z" fill="#37C4B3"/>
<path d="M4.0971 1.31152C3.97987 1.37842 3.87768 1.4778 3.80295 1.6046L1.28196 5.88049C1.18659 6.04236 1.14528 6.23026 1.15627 6.41444H5.92179L6.51375 5.41043L4.0971 1.31152Z" fill="#53E7D3"/>
<path d="M16.7 5.88049L14.1791 1.6046C14.1044 1.4778 14.0023 1.37835 13.8849 1.31152L11.4683 5.41029L12.0603 6.41444H16.8259C16.8369 6.23019 16.7957 6.04229 16.7 5.88049Z" fill="#53E7D3"/>
<path d="M8.99096 16.7876L12.0603 6.41455H5.94067L8.99096 16.7876Z" fill="#53E7D3"/>
<path d="M8.98669 1.21533L5.92188 6.41392H12.0605L8.99554 1.21533H8.98669Z" fill="#B9F5ED"/>
<path opacity="0.1" d="M7.86859 12.9694L3.39122 6.90714C3.17476 6.61406 3.15467 6.19726 3.34176 5.87989L5.86263 1.60407C6.00562 1.36145 6.24842 1.21533 6.50821 1.21533H4.44849C4.1887 1.21533 3.94591 1.36145 3.80291 1.60407L1.28204 5.87989C1.09496 6.19726 1.11498 6.61406 1.3315 6.90714L8.39486 16.4708C8.54165 16.6697 8.76025 16.7848 8.9906 16.7851L7.86859 12.9694Z" fill="black"/>
<path d="M8.01175 16.8181C8.25359 17.1457 8.61052 17.3337 8.9912 17.3337C9.37182 17.3337 9.72881 17.1458 9.97053 16.8183L13.974 11.3978C14.1472 11.1634 14.116 10.8179 13.9044 10.6261C13.6929 10.4343 13.381 10.4688 13.2078 10.7032L10.0453 14.9852L12.4192 6.96245H15.9706L14.234 9.31387C14.0608 9.54831 14.0921 9.8938 14.3036 10.0856C14.5152 10.2775 14.8271 10.243 15.0002 10.0085L17.0341 7.25469C17.3894 6.77372 17.4218 6.10071 17.1148 5.58027L14.594 1.30389C14.3584 0.905066 13.9621 0.666992 13.5339 0.666992H4.44858C4.01996 0.666992 3.62374 0.905206 3.38859 1.30424L0.867727 5.58006C0.560759 6.10064 0.593224 6.77358 0.948511 7.25448L8.01175 16.8181ZM2.01191 6.96238H5.58158L7.94322 14.9934L2.01191 6.96238ZM13.946 2.21063L16.1006 5.86558H12.3285L12.0598 5.40986L13.946 2.21063ZM13.0269 1.7638L11.4685 4.40704L9.91021 1.7638H13.0269ZM11.1459 5.86558H10.1101C9.83669 5.86558 9.61505 6.11114 9.61505 6.41402C9.61505 6.71689 9.83669 6.96245 10.1101 6.96245H11.3773L8.99265 15.0216L6.62275 6.96238H8.32813C8.60149 6.96238 8.82313 6.71682 8.82313 6.41395C8.82313 6.11107 8.60149 5.86551 8.32813 5.86551H6.83642L8.99114 2.2107L11.1459 5.86558ZM8.07219 1.7638L6.51386 4.40704L4.95552 1.7638H8.07219ZM4.03657 2.21084L5.92266 5.40986L5.65403 5.86551H1.88192L4.03657 2.21084Z" fill="black"/>
</svg>
